<svg aria-hidden="true" style="position: absolute; width: 0; height: 0; overflow: hidden;" version="1.1" xmlns="http://www.w3.org/2000/svg" xmlns:xlink="http://www.w3.org/1999/xlink">
    <defs>
        <symbol id="heart">
            <path fill-rule="evenodd" clip-rule="evenodd" d="M9.85714 18.0714V20.5357H13.1429V18.0714H15.6071V14.7857H18.0714V13.1429H20.5357V9.85715H23V2.46429H20.5357V0H13.1429V2.46429H9.85714V0H2.46429V2.46429H0V9.85715H2.46429V13.1429H4.92857V14.7857H7.39286V18.0714H9.85714ZM6.57168 3.28596H3.28596V8.21453H6.57168V3.28596Z" fill="#82F9A1"></path>
        </symbol>

        <symbol id="react" viewBox="0 0 24 24" width="18" height="18" >
            <path fill-rule="evenodd" clip-rule="evenodd" d="M28.6955 14.3225C32.5112 15.4904 35 17.3738 35 19.3612C35 21.3424 32.5234 23.2258 28.7322 24.3938C29.6188 28.2707 29.2336 31.3588 27.5153 32.3493C27.1117 32.5818 26.647 32.6918 26.1333 32.6918C24.4517 32.6918 22.2503 31.5055 20.0245 29.4387C17.7986 31.5177 15.5972 32.7163 13.9156 32.7163C13.402 32.7163 12.9372 32.6062 12.5398 32.3738C10.8153 31.3832 10.424 28.2891 11.3045 24.3999C7.48878 23.232 5 21.3486 5 19.3612C5 17.3799 7.47656 15.5026 11.2801 14.3286C10.3934 10.4517 10.7786 7.36364 12.4969 6.37301C12.9005 6.14064 13.3653 6.03057 13.8789 6.03057V6.02446C15.5605 6.02446 17.7619 7.21076 19.9877 9.27762C22.2136 7.19853 24.415 6 26.0966 6V6.00612C26.6017 6.00699 27.0644 6.11711 27.4603 6.34855C29.1847 7.33917 29.576 10.4334 28.6955 14.3225ZM26.0905 7.36365C24.8188 7.36686 22.9504 8.38167 20.9601 10.2315C21.8223 11.1304 22.6784 12.1578 23.5039 13.289C24.8798 13.4358 26.1884 13.6621 27.3869 13.9556C27.5214 13.338 27.6315 12.7326 27.6988 12.1578C27.98 9.82186 27.6192 8.0057 26.7876 7.52874C26.598 7.42479 26.3718 7.36975 26.0905 7.36975V7.36365ZM19.0155 10.2377C17.022 8.39707 15.1447 7.3881 13.8789 7.3881V7.39421C13.5976 7.39421 13.3591 7.44313 13.1757 7.5532C12.3502 8.03628 11.9955 9.85242 12.2829 12.1883C12.3563 12.757 12.4602 13.3502 12.6009 13.9617C13.7994 13.6621 15.108 13.4358 16.49 13.289C17.3034 12.1578 18.1594 11.1366 19.0155 10.2377ZM26.2128 17.6979C26.5307 16.8846 26.8121 16.0713 27.0384 15.2825C26.2373 15.0868 25.3995 14.9278 24.5312 14.7994C24.8309 15.2642 25.1305 15.7411 25.4117 16.2303C25.6991 16.7195 25.9621 17.2087 26.2128 17.6979ZM22.764 24.1309C23.2715 23.4032 23.7607 22.6205 24.2377 21.795C24.6963 20.9939 25.1183 20.1745 25.5035 19.3551C25.1183 18.5357 24.6963 17.7224 24.2316 16.9213C23.7546 16.1019 23.2592 15.3253 22.7517 14.5976C21.8468 14.5243 20.9234 14.4815 20 14.4815C19.0705 14.4815 18.1472 14.5243 17.236 14.6037C16.7285 15.3314 16.2393 16.1141 15.7623 16.9397C15.3037 17.7408 14.8757 18.5601 14.4965 19.3795C14.8818 20.199 15.3037 21.0123 15.7684 21.8133C16.2454 22.6327 16.7408 23.4092 17.2483 24.137C18.1532 24.2103 19.0766 24.2532 20 24.2532C20.9295 24.2532 21.8528 24.2103 22.764 24.1309ZM27.0566 23.4338C26.8243 22.6388 26.543 21.8194 26.2128 21C25.9621 21.4892 25.6991 21.9846 25.4179 22.4737C25.1366 22.969 24.8369 23.4521 24.5373 23.9229C25.4117 23.7946 26.2556 23.6295 27.0566 23.4338ZM18.3123 25.5679C18.8749 26.2833 19.4435 26.9376 20.0123 27.5247C20.5748 26.9376 21.1435 26.2833 21.6939 25.5679C21.1373 25.5984 20.5687 25.6107 19.9939 25.6107C19.4252 25.6107 18.8627 25.5924 18.3123 25.5679ZM12.9556 23.4399C13.7566 23.6355 14.5944 23.7946 15.4627 23.9229C15.1631 23.4583 14.8695 22.9813 14.5821 22.4921C14.2947 22.0028 14.0318 21.5136 13.7811 21.0245C13.4631 21.8377 13.1818 22.651 12.9556 23.4399ZM21.6816 13.1545C21.1191 12.4391 20.5503 11.7848 19.9817 11.1977C19.4191 11.7848 18.8504 12.4391 18.3001 13.1545C18.8565 13.1239 19.4252 13.1117 20 13.1117C20.5687 13.1117 21.1313 13.13 21.6816 13.1545ZM14.576 16.2487C14.8573 15.7534 15.1569 15.2703 15.4565 14.7994C14.5821 14.9278 13.7383 15.0929 12.9372 15.2825C13.1696 16.0775 13.4509 16.8968 13.7811 17.7163C14.0318 17.2271 14.2947 16.7379 14.576 16.2487ZM6.35753 19.3612C6.35753 20.3213 7.75785 21.532 9.92254 22.4554C10.4545 22.6816 11.0294 22.8895 11.6347 23.0791C11.9772 21.8866 12.4297 20.6453 12.9923 19.3734C12.4236 18.0954 11.9649 16.8479 11.6164 15.6494C11.0232 15.839 10.4484 16.0408 9.92254 16.267C7.75785 17.1843 6.35753 18.4012 6.35753 19.3612ZM12.3013 26.5646C12.02 28.9006 12.3808 30.7167 13.2124 31.1936C13.3958 31.2976 13.6282 31.3526 13.9034 31.3588C15.1753 31.3588 17.0465 30.3437 19.0399 28.4908C18.1777 27.5919 17.3216 26.5646 16.4961 25.4333C15.1203 25.2866 13.8117 25.0603 12.6131 24.7668C12.4786 25.3844 12.3685 25.9898 12.3013 26.5646ZM26.8243 31.1692C27.6498 30.6861 28.0045 28.8699 27.717 26.534C27.6498 25.9654 27.5398 25.3722 27.3991 24.7546C26.2006 25.0543 24.892 25.2805 23.51 25.4273C22.6966 26.5585 21.8406 27.5797 20.9845 28.4786C22.978 30.3192 24.8553 31.3282 26.1211 31.3282C26.4024 31.3282 26.6409 31.2792 26.8243 31.1692ZM28.3775 23.0729C28.9707 22.8835 29.5455 22.6816 30.0714 22.4554C32.236 21.5381 33.6363 20.3213 33.6425 19.3612C33.6425 18.4012 32.2422 17.1904 30.0774 16.267C29.5393 16.0408 28.9645 15.8329 28.3592 15.6433C28.0167 16.8357 27.5642 18.0771 27.0017 19.349C27.5703 20.627 28.0289 21.8744 28.3775 23.0729ZM22.788 19.3612C22.788 20.9046 21.5367 22.1557 19.9934 22.1557C18.45 22.1557 17.1988 20.9046 17.1988 19.3612C17.1988 17.8178 18.45 16.5666 19.9934 16.5666C21.5367 16.5666 22.788 17.8178 22.788 19.3612Z" fill="#61DAFB"></path>
        </symbol>

        <symbol id="gatsby" viewBox="0 0 24 24">
            <circle cx="14" cy="14" r="14" fill="#639"></circle>
            <path fill="#fff" d="M6.2 21.8C4.1 19.7 3 16.9 3 14.2L13.9 25c-2.8-.1-5.6-1.1-7.7-3.2zm10.2 2.9L3.3 11.6C4.4 6.7 8.8 3 14 3c3.7 0 6.9 1.8 8.9 4.5l-1.5 1.3C19.7 6.5 17 5 14 5c-3.9 0-7.2 2.5-8.5 6L17 22.5c2.9-1 5.1-3.5 5.8-6.5H18v-2h7c0 5.2-3.7 9.6-8.6 10.7z"></path>
        </symbol>

        <symbol id="apple" viewBox="0 0 24 24">
            <svg class="iconStyles__StyledApple-sc-123zsd8-6 hBYiBT" width="170px" xmlns="http://www.w3.org/2000/svg" viewBox="0 0 170 170" version="1.1" height="170px"><path d="m150.37 130.25c-2.45 5.66-5.35 10.87-8.71 15.66-4.58 6.53-8.33 11.05-11.22 13.56-4.48 4.12-9.28 6.23-14.42 6.35-3.69 0-8.14-1.05-13.32-3.18-5.197-2.12-9.973-3.17-14.34-3.17-4.58 0-9.492 1.05-14.746 3.17-5.262 2.13-9.501 3.24-12.742 3.35-4.929 0.21-9.842-1.96-14.746-6.52-3.13-2.73-7.045-7.41-11.735-14.04-5.032-7.08-9.169-15.29-12.41-24.65-3.471-10.11-5.211-19.9-5.211-29.378 0-10.857 2.346-20.221 7.045-28.068 3.693-6.303 8.606-11.275 14.755-14.925s12.793-5.51 19.948-5.629c3.915 0 9.049 1.211 15.429 3.591 6.362 2.388 10.447 3.599 12.238 3.599 1.339 0 5.877-1.416 13.57-4.239 7.275-2.618 13.415-3.702 18.445-3.275 13.63 1.1 23.87 6.473 30.68 16.153-12.19 7.386-18.22 17.731-18.1 31.002 0.11 10.337 3.86 18.939 11.23 25.769 3.34 3.17 7.07 5.62 11.22 7.36-0.9 2.61-1.85 5.11-2.86 7.51zm-31.26-123.01c0 8.1021-2.96 15.667-8.86 22.669-7.12 8.324-15.732 13.134-25.071 12.375-0.119-0.972-0.188-1.995-0.188-3.07 0-7.778 3.386-16.102 9.399-22.908 3.002-3.446 6.82-6.3113 11.45-8.597 4.62-2.2516 8.99-3.4968 13.1-3.71 0.12 1.0831 0.17 2.1663 0.17 3.2409z" fill="#FFF"></path></svg>
        </symbol>

        <symbol id="double-chevron-right"  viewBox="0 0 24 24">
            <svg width="18" height="18" viewBox="0 0 18 18" fill="none" xmlns="http://www.w3.org/2000/svg">
                <path fill-rule="evenodd" clip-rule="evenodd" d="M9.21967 4.71967C9.51256 4.42678 9.98744 4.42678 10.2803 4.71967L14.0303 8.46967C14.3232 8.76256 14.3232 9.23744 14.0303 9.53033L10.2803 13.2803C9.98744 13.5732 9.51256 13.5732 9.21967 13.2803C8.92678 12.9874 8.92678 12.5126 9.21967 12.2197L12.4393 9L9.21967 5.78033C8.92678 5.48744 8.92678 5.01256 9.21967 4.71967Z" fill="#7CC9FF" fill-opacity="0.41"/>
                <path fill-rule="evenodd" clip-rule="evenodd" d="M3.96967 4.71967C4.26256 4.42678 4.73744 4.42678 5.03033 4.71967L8.78033 8.46967C9.07322 8.76256 9.07322 9.23744 8.78033 9.53033L5.03033 13.2803C4.73744 13.5732 4.26256 13.5732 3.96967 13.2803C3.67678 12.9874 3.67678 12.5126 3.96967 12.2197L7.18934 9L3.96967 5.78033C3.67678 5.48744 3.67678 5.01256 3.96967 4.71967Z" fill="#7CC9FF" fill-opacity="0.41"/>
            </svg>
        </symbol>

        <symbol id="icon-alert-circle" viewBox="0 0 24 24">
            <path d="M23 12c0-3.037-1.232-5.789-3.222-7.778s-4.741-3.222-7.778-3.222-5.789 1.232-7.778 3.222-3.222 4.741-3.222 7.778 1.232 5.789 3.222 7.778 4.741 3.222 7.778 3.222 5.789-1.232 7.778-3.222 3.222-4.741 3.222-7.778zM21 12c0 2.486-1.006 4.734-2.636 6.364s-3.878 2.636-6.364 2.636-4.734-1.006-6.364-2.636-2.636-3.878-2.636-6.364 1.006-4.734 2.636-6.364 3.878-2.636 6.364-2.636 4.734 1.006 6.364 2.636 2.636 3.878 2.636 6.364zM11 8v4c0 0.552 0.448 1 1 1s1-0.448 1-1v-4c0-0.552-0.448-1-1-1s-1 0.448-1 1zM12 17c0.552 0 1-0.448 1-1s-0.448-1-1-1-1 0.448-1 1 0.448 1 1 1z"></path>
        </symbol>


    </defs>
</svg>
